<svg xmlns="http://www.w3.org/2000/svg" xmlns:xlink="http://www.w3.org/1999/xlink" version="1.1" viewBox="463.5 0 573 88"><svg xml:space="preserve" width="1500" height="88" data-version="2" data-id="lg_Nj15U1EjVRBdgLd54a" viewBox="0 0 573 88" x="0" y="0"><rect width="100%" height="100%" fill="transparent"/><path fill="#FAFAF7" d="M156.98 67.492h-7.22v-53.05q3.12-.38 6.88-.57 3.76-.19 7.79-.19 6.61 0 11.25 2.09 4.63 2.09 7.07 5.74 2.43 3.65 2.43 8.36 0 5.7-2.81 9.65-2.82 3.95-7.83 6.04-5.02 2.09-11.63 2.09-3.19 0-5.93-.22zm6.84-25.84q6.77 0 10.49-3.04 3.72-3.04 3.72-8.13 0-4.94-3.57-7.83-3.57-2.89-10.18-2.89-2.05 0-3.88.08-1.82.07-3.42.23v21.2q1.22.15 2.97.27 1.74.11 3.87.11"/><rect width="35.42" height="53.81" x="-17.71" y="-26.91" fill="none" rx="0" ry="0" transform="translate(167.97 41.09)"/><path fill="#FAFAF7" d="M209.8 68.402q-5.62 0-10.11-2.62-4.48-2.62-7.03-7.3-2.54-4.67-2.54-10.75 0-6.38 2.58-11.02 2.59-4.64 7.07-7.14 4.48-2.51 10.03-2.51 5.55 0 10 2.51 4.44 2.5 7.06 7.1 2.63 4.6 2.63 10.91 0 6.31-2.59 10.98-2.58 4.67-7.03 7.26-4.44 2.58-10.07 2.58m0-6.08q6.01 0 9.35-4.06 3.34-4.07 3.34-10.53 0-3.95-1.67-7.26-1.67-3.3-4.52-5.32-2.85-2.01-6.5-2.01-6 0-9.35 3.95-3.34 3.95-3.34 10.49 0 3.95 1.67 7.33t4.52 5.4q2.85 2.01 6.5 2.01"/><rect width="39.37" height="41.34" x="-19.68" y="-20.67" fill="none" rx="0" ry="0" transform="translate(210.3 48.23)"/><path fill="#FAFAF7" d="M245.45 67.492h-6.84v-39.52h6.61v8.59q.99-2.51 2.66-4.68 1.67-2.16 4.18-3.49t5.85-1.33q1.14 0 2.28.11 1.14.12 1.9.34l-2.05 7.07q-1.45-.61-3.42-.61-2.81 0-5.36 1.6-2.55 1.6-4.18 4.94-1.63 3.34-1.63 8.51z"/><rect width="23.48" height="40.43" x="-11.74" y="-20.21" fill="none" rx="0" ry="0" transform="translate(250.85 47.78)"/><path fill="#FAFAF7" d="M282.76 68.402q-5.7 0-9-3.76-3.31-3.76-3.31-10.75v-18.55h-6.84v-5.93h6.99l1.45-12.46h5.24v12.46h10.94v5.93h-10.94v19.08q0 4.41 1.86 6.15 1.86 1.75 4.45 1.75 1.9 0 3.61-.61 1.71-.6 3.15-1.44l1.9 5.47q-1.52.91-4.1 1.79-2.59.87-5.4.87"/><rect width="28.65" height="51.45" x="-14.32" y="-25.73" fill="none" rx="0" ry="0" transform="translate(278.44 43.18)"/><path fill="#FAFAF7" d="M312.02 68.402q-3.42 0-6.46-1.44-3.04-1.45-4.94-4.68-1.9-3.23-1.9-8.62v-25.69h6.84v24.78q0 4.63 1.98 7.1 1.97 2.47 5.77 2.47 3.12 0 6.05-1.25 2.92-1.26 5.2-3.38v-29.72h6.84v29.26q0 3.27 1.41 4.29 1.4 1.03 3.08 1.03l-1.45 5.32q-7.07 0-8.74-5.62-2.66 2.73-6.15 4.44-3.5 1.71-7.53 1.71"/><rect width="37.17" height="40.43" x="-18.59" y="-20.21" fill="none" rx="0" ry="0" transform="translate(317.8 48.69)"/><path fill="#FAFAF7" d="M359.52 85.122q-3.49 0-6.8-.83-3.31-.84-5.89-2.51l2.51-5.93q1.82 1.44 4.25 2.39 2.44.95 5.93.95 5.4 0 8.48-2.85 3.07-2.85 3.07-9.08v-4.86q-1.52 1.82-4.37 3.46-2.85 1.63-6.8 1.63-4.48 0-8.51-2.32-4.03-2.32-6.54-6.8-2.5-4.48-2.5-10.79 0-5.93 2.47-10.57 2.47-4.63 6.65-7.29t9.19-2.66q3.35 0 6.08 1.14 2.74 1.14 4.71 2.81v-3.04h6.24v38.61q0 6.53-2.28 10.64-2.28 4.1-6.35 6-4.07 1.9-9.54 1.9m1.9-23.71q3.04 0 5.47-1.37 2.44-1.37 3.96-3.19v-20.67q-1.68-1.22-4.03-2.21-2.36-.98-5.47-.98-3.12 0-5.86 1.67-2.73 1.67-4.44 4.82-1.71 3.16-1.71 7.72 0 4.33 1.71 7.52 1.71 3.19 4.44 4.94 2.74 1.75 5.93 1.75"/><rect width="35.34" height="58.06" x="-17.67" y="-29.03" fill="none" rx="0" ry="0" transform="translate(360.52 56.6)"/><path fill="#FAFAF7" d="M422.15 67.492h-31.92v-53.2h31.92v6.23h-24.7v16.19h21.28v6.08h-21.28v18.47h24.7z"/><rect width="31.92" height="53.2" x="-15.96" y="-26.6" fill="none" rx="0" ry="0" transform="translate(406.69 41.4)"/><path fill="#FAFAF7" d="M446.77 68.402q-4.94 0-8.97-2.51-4.03-2.5-6.42-7.1-2.39-4.6-2.39-10.83 0-5.93 2.39-10.64 2.39-4.71 6.61-7.49 4.22-2.77 9.69-2.77 3.42 0 6.2 1.18 2.77 1.17 4.82 2.92v-3.19h6.23v29.94q0 2.89 1.41 3.77 1.41.87 3.08.87l-1.45 5.32q-7.29 0-8.81-5.93-1.75 2.43-4.75 4.45-3 2.01-7.64 2.01m1.52-6.08q2.89 0 5.47-1.4 2.59-1.41 4.33-3.54v-21.2q-2.05-1.45-4.52-2.32-2.47-.87-5.2-.87-3.65 0-6.43 1.86-2.77 1.86-4.37 5.17-1.59 3.3-1.59 7.71 0 4.26 1.59 7.56 1.6 3.31 4.41 5.17 2.81 1.86 6.31 1.86"/><rect width="40.43" height="41.34" x="-20.21" y="-20.67" fill="none" rx="0" ry="0" transform="translate(449.7 48.23)"/><path fill="#FAFAF7" d="M489.18 68.402q-4.49 0-8.1-1.14-3.61-1.14-5.96-2.96l2.89-5.7q1.97 1.67 4.97 2.77 3.01 1.1 6.43 1.1 4.25 0 6.42-1.4 2.16-1.41 2.16-3.61 0-1.6-.79-2.81-.8-1.22-2.93-2.4t-6.16-2.54q-5.54-1.9-8.32-4.53-2.77-2.62-2.77-7.25 0-4.56 3.99-7.72 3.99-3.15 11.06-3.15 3.8 0 6.76.8 2.96.79 5.32 2.01l-1.9 5.62q-2.05-1.21-4.67-1.97-2.63-.76-5.82-.76-3.95 0-6 1.59-2.05 1.6-2.05 3.5 0 1.82 1.59 3.12 1.6 1.29 6.23 2.81 7.53 2.51 10.49 5.55 2.97 3.04 2.97 7.6 0 5.32-4.3 8.39-4.29 3.08-11.51 3.08"/><rect width="29.87" height="41.34" x="-14.94" y="-20.67" fill="none" rx="0" ry="0" transform="translate(490.56 48.23)"/><path fill="#FAFAF7" d="M529.91 68.402q-8.51 0-13.49-5.43-4.97-5.44-4.97-15.24 0-5.93 2.24-10.6 2.24-4.68 6.27-7.37 4.03-2.7 9.35-2.7 5.7 0 9.46 2.47 3.76 2.47 5.66 6.65 1.9 4.18 1.9 9.19 0 2.66-.23 5.17h-27.66q.68 5.55 3.87 8.67 3.2 3.11 8.44 3.11 3.42 0 6.16-.72 2.73-.72 5.24-1.86l1.6 5.85q-2.74 1.22-6.16 2.01-3.42.8-7.68.8m-11.55-23.41h21.66q0-5.77-2.89-8.89-2.88-3.11-7.98-3.11-4.4 0-7.29 3.07-2.89 3.08-3.5 8.93"/><rect width="34.88" height="41.34" x="-17.44" y="-20.67" fill="none" rx="0" ry="0" transform="translate(529.39 48.23)"/><path fill="#FAFAF7" d="M564.04 51.762h-5.63l-.98-20.75v-18.92h7.6v18.92zm-2.74 16.64q-2.05 0-3.57-1.52t-1.52-3.57q0-2.36 1.37-3.72 1.37-1.37 3.72-1.37 1.98 0 3.54 1.52 1.55 1.52 1.55 3.57 0 2.28-1.44 3.69-1.44 1.4-3.65 1.4"/><rect width="10.18" height="56.31" x="-5.09" y="-28.16" fill="none" rx="0" ry="0" transform="translate(561.8 40.75)"/><path fill="#ffc857" fill-rule="evenodd" d="m97.497 21.244-7.63-.21-2.441-7.209a1.884 1.884 0 0 0-.53-.53 1.147 1.147 0 0 0-.637-.21 1.33 1.33 0 0 0-.742.21 1.022 1.022 0 0 0-.423.53l-2.545 7.209-7.526.21a1.309 1.309 0 0 0-.741.213 1.025 1.025 0 0 0-.423.637 1.309 1.309 0 0 0 0 .742 1.02 1.02 0 0 0 .423.53l6.043 4.666L78.1 35.24a1.287 1.287 0 0 0 0 .742c.14.283.316.494.53.637.139.14.352.211.635.211a1.3 1.3 0 0 0 .742-.211l6.255-4.241 6.255 4.24a1.143 1.143 0 0 0 .635.212 1.317 1.317 0 0 0 .744-.211 1.017 1.017 0 0 0 .422-.637 1.265 1.265 0 0 0 0-.742l-2.12-7.208 6.044-4.666c.14-.14.281-.317.423-.53a.885.885 0 0 0-.107-.742 1.037 1.037 0 0 0-.42-.637 1.156 1.156 0 0 0-.64-.213m13.357 22.157a1.31 1.31 0 0 0 0-.742 1.596 1.596 0 0 0-.53-.637 1.148 1.148 0 0 0-.638-.212l-7.527-.212-2.542-7.101a2.472 2.472 0 0 0-.423-.637 1.317 1.317 0 0 0-.744-.212 1.312 1.312 0 0 0-.742.212 1.02 1.02 0 0 0-.424.637l-2.544 7.101-7.525.212a1.305 1.305 0 0 0-.741.212 1.023 1.023 0 0 0-.425.637 1.334 1.334 0 0 0 0 .742c.072.209.212.423.425.634l6.042 4.56-2.225 7.315a.979.979 0 0 0 0 .637c.14.28.316.493.53.635a1.143 1.143 0 0 0 .635.212 1.3 1.3 0 0 0 .742-.212l6.255-4.24 6.254 4.24a1.143 1.143 0 0 0 .636.212 1.317 1.317 0 0 0 .744-.212 1.013 1.013 0 0 0 .422-.635.944.944 0 0 0 0-.637l-2.12-7.315 6.044-4.56c.209-.21.348-.425.42-.634m-4.347 28.621h.319a.928.928 0 0 1 .424-.104c3.18-.566 4.77-2.97 4.77-7.211a.791.791 0 0 1 .317-.847c.213-.283.46-.423.744-.423a1.196 1.196 0 0 1 .848.107c5.018 2.894 6.678 6.464 4.982 10.705v.104c-.07.074-.105.178-.105.32v.104c-.074.071-.142.14-.213.212-.919 2.968.46 5.513 4.136 7.632.283.14.46.39.53.742a1.206 1.206 0 0 1-.105.849c-.215.354-.461.565-.744.637a1.478 1.478 0 0 1-.954-.105c-5.017-2.897-6.713-6.467-5.088-10.707.071-.071.106-.179.106-.32a1.287 1.287 0 0 0 .212-.313c.564-1.627.42-3.112-.424-4.456.495 2.829-.424 5.197-2.756 7.104h-.107a1.262 1.262 0 0 1-.317.212c0 .071-.033.105-.106.105v.104c-2.403 2.122-2.544 4.985-.423 8.589.14.283.177.6.105.953-.07.354-.246.602-.53.742a1.447 1.447 0 0 1-.955.107c-.282-.07-.53-.247-.742-.53-2.897-4.947-2.58-8.87.956-11.765.07-.074.14-.14.21-.215a1.337 1.337 0 0 0 .319-.209c1.554-1.344 2.19-3.004 1.907-4.982-.99 2.965-3.04 4.697-6.147 5.191h-.425c-.07.074-.14.108-.212.108-3.18.637-4.735 3.072-4.664 7.313 0 .283-.142.566-.424.849-.213.209-.495.319-.849.319-.352 0-.635-.11-.847-.32-.283-.282-.39-.565-.32-.848 0-5.798 2.192-9.049 6.572-9.753m9.118-19.082v.107c-.072 3.039-.284 5.828-.638 8.374-.071.354-.21.6-.423.742-.212.214-.493.319-.849.319H93.046c-1.132 5.44-3.78 10.21-7.951 14.31-5.794 5.795-12.757 8.692-20.881 8.692-8.13 0-15.055-2.897-20.78-8.693-4.167-4.1-6.819-8.868-7.95-14.31h-20.67c-.355 0-.638-.104-.848-.318-.212-.141-.354-.388-.424-.742a43.157 43.157 0 0 1-.531-6.892 3.522 3.522 0 0 1-.106-.849v-1.165C12.834 38.31 17.85 26.19 27.957 16.156 34.742 9.3 42.515 4.812 51.28 2.691c4.1-1.059 8.41-1.59 12.935-1.59 4.592 0 8.937.531 13.037 1.59 8.693 2.12 16.466 6.608 23.321 13.465 10.035 10.034 15.053 22.296 15.053 36.784M65.802 4.388a1.153 1.153 0 0 0-.639-.21 1.321 1.321 0 0 0-.741.21 1.05 1.05 0 0 0-.424.638l-2.544 7.101-7.526.212a1.298 1.298 0 0 0-.742.214 1.015 1.015 0 0 0-.422.635 1.31 1.31 0 0 0 0 .742 1.007 1.007 0 0 0 .422.53l6.042 4.665-2.225 7.21a1.309 1.309 0 0 0 0 .742c.14.284.318.493.53.635.211.142.423.215.634.215a1.318 1.318 0 0 0 .744-.215l6.252-4.239 6.255 4.24a1.153 1.153 0 0 0 .637.214 1.314 1.314 0 0 0 .743-.215 1.025 1.025 0 0 0 .424-.635 1.309 1.309 0 0 0 0-.742l-2.119-7.21 6.04-4.665a1 1 0 0 0 .424-.53 1.287 1.287 0 0 0 0-.742 1.588 1.588 0 0 0-.53-.635 1.139 1.139 0 0 0-.636-.214l-7.633-.212-2.435-7.1a1.633 1.633 0 0 0-.531-.64m-21.943 8.697a1.325 1.325 0 0 0-.742.209 1.022 1.022 0 0 0-.424.53l-2.544 7.21-7.632.21a1.145 1.145 0 0 0-.636.213 1.031 1.031 0 0 0-.423.637 1.309 1.309 0 0 0 0 .742c.07.212.211.389.423.53l5.937 4.665-2.121 7.209a1.31 1.31 0 0 0 0 .741 1.033 1.033 0 0 0 .422.637 1.314 1.314 0 0 0 .743.212c.212 0 .46-.07.743-.212l6.148-4.24 6.255 4.24a1.305 1.305 0 0 0 .741.212 1.314 1.314 0 0 0 .743-.212 1.03 1.03 0 0 0 .423-.637 1.334 1.334 0 0 0 0-.741l-2.227-7.209 6.043-4.666a1.011 1.011 0 0 0 .424-.53 1.333 1.333 0 0 0 0-.74 1.035 1.035 0 0 0-.424-.638 1.15 1.15 0 0 0-.637-.213l-7.63-.21-2.546-7.208a1.033 1.033 0 0 0-.422-.53 1.161 1.161 0 0 0-.637-.211m-1.803 28.938a1.309 1.309 0 0 0-.743-.212l-7.526-.212-2.544-7.101a1.027 1.027 0 0 0-.424-.637 1.3 1.3 0 0 0-.741-.212c-.283 0-.494.071-.636.212-.212.14-.389.351-.53.637l-2.544 7.101-7.526.212a1.314 1.314 0 0 0-.743.212 2.437 2.437 0 0 0-.424.637 1.31 1.31 0 0 0 0 .742c.071.209.212.423.424.634l6.043 4.56-2.12 7.315a.996.996 0 0 0 0 .637 1.037 1.037 0 0 0 .423.635 1.14 1.14 0 0 0 .636.212 1.313 1.313 0 0 0 .743-.212l6.254-4.24 6.254 4.24a1.312 1.312 0 0 0 .742.212 1.147 1.147 0 0 0 .637-.212 1.027 1.027 0 0 0 .424-.635c.14-.214.176-.426.106-.637l-2.226-7.315 6.041-4.56c.212-.21.354-.424.424-.634a1.334 1.334 0 0 0 0-.742 1.022 1.022 0 0 0-.424-.637M80.644 54.53a77.86 77.86 0 0 1 2.225-.849c.351-.14.741-.316 1.165-.53-.776-3.674-2.615-6.925-5.51-9.75-3.888-3.96-8.66-5.936-14.311-5.936-5.586 0-10.356 1.975-14.311 5.936-2.829 2.825-4.63 6.076-5.408 9.75.423.213.848.39 1.273.53.706.286 1.447.566 2.225.85 11.025 3.957 21.908 3.957 32.652 0m-37.527 8.055a1.212 1.212 0 0 1-.531-.104h-.318c1.06 3.462 3.004 6.571 5.831 9.327 4.453 4.453 9.824 6.714 16.115 6.785 6.36-.071 11.765-2.331 16.217-6.785 2.757-2.756 4.7-5.865 5.83-9.327h-.211a2.055 2.055 0 0 1-.635.104c-13.782 6.29-27.881 6.29-42.298 0m-28.092.957c.21-.141.494-.179.848-.108.281 0 .53.141.741.424.212.212.318.495.318.846 0 3.183.883 5.336 2.651 6.467v.107a9.32 9.32 0 0 0 2.12.637.94.94 0 0 1 .425.105h.211c4.453.704 6.678 3.955 6.678 9.751 0 .283-.106.566-.318.849-.282.21-.565.32-.848.32-.352 0-.672-.11-.955-.32-.211-.283-.317-.566-.317-.849 0-4.312-1.555-6.747-4.665-7.313-.07 0-.14-.033-.212-.107h-.423c-1.13-.21-2.086-.566-2.864-1.061-1.625-.846-2.72-2.226-3.285-4.13-.212.984-.176 1.87.106 2.648.354.849.954 1.627 1.802 2.334l.212.209c.07.074.14.14.212.214h.106c3.463 2.894 3.744 6.819.847 11.766a.947.947 0 0 1-.635.53 1.444 1.444 0 0 1-.954-.108c-.283-.14-.495-.387-.636-.741-.07-.354 0-.67.212-.954 2.12-3.674 1.944-6.571-.53-8.693l-.105-.104a1.224 1.224 0 0 0-.318-.212c-1.202-.987-2.013-2.12-2.438-3.392-.495-1.132-.601-2.402-.318-3.817-.637 1.061-.884 2.155-.743 3.285.071.423.177.848.318 1.275 0 .068.035.173.106.314a.813.813 0 0 1 .106.319c1.695 4.24 0 7.81-5.088 10.707a1.216 1.216 0 0 1-.848.105.968.968 0 0 1-.743-.637c-.212-.283-.247-.566-.106-.85.071-.35.247-.599.53-.74 3.605-2.12 4.947-4.666 4.028-7.633-.072-.071-.107-.14-.107-.212v-.104a.8.8 0 0 1-.106-.32c-.07 0-.106-.036-.106-.104a9.457 9.457 0 0 1-.422-1.803c-.565-3.462 1.274-6.428 5.513-8.9"/></svg></svg>
